<svg viewBox="0 0 1024 1024" xmlns="http://www.w3.org/2000/svg"><path d="M512 0C229.23 0 0 229.23 0 512s229.23 512 512 512 512-229.23 512-512S794.77 0 512 0zm218.42 660.83c-1.4 1.37-2.9 2.62-4.47 3.75-8.08 5.75-17.65 8.78-27.42 8.78-10.37 0-20.47-3.32-28.75-9.45-0.18-0.13-0.37-0.27-0.55-0.42-3.88-3.08-7.38-6.62-10.4-10.53l-64.88-83.33c-3.13-4.02-7.55-6.63-12.43-7.35-4.88-0.72-9.87 0.5-14.05 3.42-4.18 2.92-7.1 7.23-8.23 12.13-1.12 4.9-0.35 10 2.15 14.37l45.42 79.17c6.12 10.67 6.12 23.63 0 34.3l-55.92 97.47c-6.13 10.68-17.52 17.27-29.8 17.27-12.28 0-23.67-6.58-29.8-17.27l-45.42-79.17c-2.43-4.23-6.07-7.6-10.42-9.67l-155.15-73.88c-10.35-4.93-18.4-13.68-22.67-24.6s-3.9-22.95 0.93-33.8l82.68-185.7c4.67-10.48 13.07-18.82 23.53-23.35 10.47-4.52 22.3-4.87 33.15-0.97l126.97 45.62c4.87 1.75 10.15 1.78 15.03 0.1s8.97-4.87 11.62-9.08c2.65-4.22 3.6-9.17 2.72-14.07-0.88-4.9-3.47-9.33-7.35-12.55l-137.45-113.88c-10.63-8.8-16.73-21.87-16.73-35.77 0-13.88 6.1-26.95 16.73-35.75l105.7-87.53c10.3-8.52 23.2-13.1 36.5-13.1 13.32 0 26.22 4.58 36.5 13.1l173.18 143.43c7.77 6.43 17.58 9.97 27.65 9.97 10.45 0 20.65-3.8 28.67-10.7l17.43-15.02c11.08-9.53 25.53-14.77 40.55-14.77 15.02 0 29.47 5.23 40.55 14.77l53.95 46.45c4.78 4.12 7.55 10.05 7.55 16.27 0 6.22-2.77 12.15-7.55 16.27l-55.83 48.07c-9.52 8.2-14.77 20.07-14.77 33.32 0 13.23 5.25 25.1 14.77 33.3l138.8 119.5c11.08 9.53 17.42 23.25 17.42 37.62 0 14.37-6.33 28.08-17.42 37.62l-104.93 90.33c-3.13 2.7-5.58 6.13-7.1 10s-2.07 8-1.58 12.05c0.48 4.05 2 7.87 4.4 11.13 2.4 3.25 5.6 5.85 9.27 7.52l57.88 26.38c10.33 4.7 18.52 13.13 22.95 23.63s4.5 22.35 0.22 32.88l-79.08 194.25c-4.23 10.38-12.03 18.9-22 24l-0.02 0.02z" fill="#1677FF"/></svg>
