<svg viewBox="0 0 1024 1024" xmlns="http://www.w3.org/2000/svg"><path d="M666.24 371.456c0-67.584-75.776-124.928-181.248-124.928-112.64 0-192.512 61.44-192.512 112.64 0 54.272 61.44 112.64 161.792 112.64 22.528 0 49.152-4.096 71.68-10.24l75.776 40.96-20.48-61.44c45.056-24.576 85.056-51.2 85.056-69.632z m-165.888-26.624c-11.264 0-20.48-9.216-20.48-20.48s9.216-20.48 20.48-20.48 20.48 9.216 20.48 20.48-9.216 20.48-20.48 20.48z m96.256 0c-11.264 0-20.48-9.216-20.48-20.48s9.216-20.48 20.48-20.48 20.48 9.216 20.48 20.48-9.216 20.48-20.48 20.48z m204.8 171.008c0-81.92-96.256-147.456-215.04-147.456-120.832 0-215.04 63.488-215.04 149.504 0 81.92 94.208 147.456 215.04 147.456 28.672 0 59.392-4.096 86.016-10.24l90.112 47.104-26.624-71.68C854.528 718.336 905.216 648.704 905.216 515.84zM626.688 474.88c-14.336 0-26.624-12.288-26.624-26.624s12.288-26.624 26.624-26.624 26.624 12.288 26.624 26.624-12.288 26.624-26.624 26.624z m129.024 0c-14.336 0-26.624-12.288-26.624-26.624s12.288-26.624 26.624-26.624 26.624 12.288 26.624 26.624-12.288 26.624-26.624 26.624z" fill="#07C160"/></svg>
